<svg width="32" height="32" viewBox="0 0 32 32" fill="none" xmlns="http://www.w3.org/2000/svg">
<g id="Frame">
<path id="Vector" fill-rule="evenodd" clip-rule="evenodd" d="M15.3867 29.8013L15.48 29.8547L15.5173 29.876C15.6654 29.9561 15.831 29.998 15.9993 29.998C16.1676 29.998 16.3333 29.9561 16.4813 29.876L16.5187 29.856L16.6133 29.8013C17.1348 29.4921 17.6437 29.1621 18.1387 28.812C19.4201 27.9073 20.6174 26.889 21.716 25.7693C24.308 23.116 27 19.1293 27 14C27 11.0826 25.8411 8.28473 23.7782 6.22183C21.7153 4.15893 18.9174 3 16 3C13.0826 3 10.2847 4.15893 8.22183 6.22183C6.15893 8.28473 5 11.0826 5 14C5 19.128 7.69333 23.116 10.284 25.7693C11.3822 26.8889 12.579 27.9072 13.86 28.812C14.3554 29.1621 14.8647 29.4921 15.3867 29.8013ZM16 18C17.0609 18 18.0783 17.5786 18.8284 16.8284C19.5786 16.0783 20 15.0609 20 14C20 12.9391 19.5786 11.9217 18.8284 11.1716C18.0783 10.4214 17.0609 10 16 10C14.9391 10 13.9217 10.4214 13.1716 11.1716C12.4214 11.9217 12 12.9391 12 14C12 15.0609 12.4214 16.0783 13.1716 16.8284C13.9217 17.5786 14.9391 18 16 18Z" fill="white"/>
</g>
</svg>
