<svg width="50" height="51" viewBox="0 0 50 51" fill="none" xmlns="http://www.w3.org/2000/svg">
<g id="customer 1" clip-path="url(#clip0_4_255)">
<g id="Group">
<path id="Vector" d="M25 20.5178C29.6923 20.5178 33.4961 16.7139 33.4961 12.0217C33.4961 7.32941 29.6923 3.52558 25 3.52558C20.3077 3.52558 16.5039 7.32941 16.5039 12.0217C16.5039 16.7139 20.3077 20.5178 25 20.5178Z" fill="white"/>
<path id="Vector_2" d="M42.1875 20.5177C45.1539 20.5177 47.5586 18.113 47.5586 15.1466C47.5586 12.1802 45.1539 9.77548 42.1875 9.77548C39.2211 9.77548 36.8164 12.1802 36.8164 15.1466C36.8164 18.113 39.2211 20.5177 42.1875 20.5177Z" fill="white"/>
<path id="Vector_3" d="M7.8125 20.5177C10.7789 20.5177 13.1836 18.113 13.1836 15.1466C13.1836 12.1802 10.7789 9.77548 7.8125 9.77548C4.84613 9.77548 2.44141 12.1802 2.44141 15.1466C2.44141 18.113 4.84613 20.5177 7.8125 20.5177Z" fill="white"/>
<path id="Vector_4" d="M13.1045 25.341C10.9902 23.6088 9.07549 23.8381 6.63086 23.8381C2.97461 23.8381 0 26.7951 0 30.4289V41.0939C0 42.6721 1.28809 43.9553 2.87207 43.9553C9.71055 43.9553 8.88672 44.079 8.88672 43.6603C8.88672 36.1031 7.9916 30.561 13.1045 25.341Z" fill="white"/>
<path id="Vector_5" d="M27.3252 23.877C23.0553 23.5209 19.3439 23.8811 16.1426 26.5235C10.7855 30.8145 11.8164 36.5922 11.8164 43.6602C11.8164 45.5303 13.3379 47.0802 15.2363 47.0802C35.8498 47.0802 36.6702 47.7451 37.8926 45.0382C38.2935 44.1227 38.1836 44.4137 38.1836 35.6563C38.1836 28.7007 32.1609 23.877 27.3252 23.877Z" fill="white"/>
<path id="Vector_6" d="M43.3691 23.838C40.9111 23.838 39.0069 23.611 36.8955 25.3409C41.9702 30.5222 41.1133 35.6861 41.1133 43.6602C41.1133 44.0815 40.4294 43.9552 47.0254 43.9552C48.666 43.9552 50 42.6261 50 40.9923V30.4288C50 26.795 47.0254 23.838 43.3691 23.838Z" fill="white"/>
</g>
</g>
<defs>
<clipPath id="clip0_4_255">
<rect width="50" height="50" fill="white" transform="translate(0 0.338959)"/>
</clipPath>
</defs>
</svg>
