<svg width="50" height="50" viewBox="0 0 50 50" fill="none" xmlns="http://www.w3.org/2000/svg">
<g id="telephone 1" clip-path="url(#clip0_12_275)">
<g id="Group">
<g id="Group_2">
<path id="Vector" d="M38.0134 33.0759C36.3799 31.4632 34.3406 31.4632 32.7175 33.0759C31.4793 34.3036 30.2412 35.5314 29.0239 36.7799C28.6909 37.1233 28.41 37.1961 28.0042 36.9672C27.2031 36.5302 26.3499 36.1765 25.58 35.6978C21.9904 33.4401 18.9835 30.5372 16.3199 27.2702C14.9986 25.6471 13.8228 23.9095 13.0009 21.9535C12.8344 21.5581 12.8656 21.298 13.1882 20.9754C14.4263 19.7789 15.6332 18.5512 16.8506 17.3234C18.5465 15.6171 18.5465 13.6194 16.8402 11.9027C15.8725 10.9247 14.9049 9.96744 13.9373 8.98942C12.9385 7.99058 11.95 6.98135 10.9408 5.99292C9.30728 4.40102 7.26799 4.40102 5.64489 6.00332C4.39634 7.23105 3.19982 8.49 1.93047 9.69693C0.754758 10.8102 0.1617 12.1732 0.0368454 13.7651C-0.160841 16.3558 0.473836 18.8009 1.36863 21.1835C3.19982 26.1153 5.98824 30.4956 9.36971 34.5117C13.9373 39.9429 19.3893 44.24 25.7672 47.3405C28.6389 48.7347 31.6146 49.8064 34.8504 49.9833C37.077 50.1081 39.0122 49.5463 40.5625 47.8087C41.6237 46.6226 42.8203 45.5405 43.944 44.4064C45.6087 42.7209 45.6191 40.6816 43.9648 39.0169C41.9879 37.0296 40.0006 35.0528 38.0134 33.0759Z" fill="white"/>
<path id="Vector_2" d="M36.0261 24.7835L39.8654 24.128C39.2619 20.6009 37.5972 17.4067 35.0689 14.868C32.3949 12.194 29.0135 10.5085 25.2887 9.98828L24.7476 13.8484C27.6297 14.2541 30.2516 15.5547 32.3221 17.6252C34.2782 19.5813 35.5579 22.0575 36.0261 24.7835Z" fill="white"/>
<path id="Vector_3" d="M42.0295 8.09472C37.5972 3.66239 31.9892 0.863576 25.7985 0L25.2574 3.86008C30.6054 4.60921 35.4539 7.03346 39.2827 10.8519C42.9139 14.4831 45.2966 19.0715 46.1601 24.1177L49.9994 23.4622C48.9902 17.6149 46.233 12.3086 42.0295 8.09472Z" fill="white"/>
</g>
</g>
</g>
<defs>
<clipPath id="clip0_12_275">
<rect width="50" height="50" fill="white"/>
</clipPath>
</defs>
</svg>
