<svg width="50" height="50" viewBox="0 0 50 50" fill="none" xmlns="http://www.w3.org/2000/svg">
<g id="truck 1" clip-path="url(#clip0_4_319)">
<g id="Group">
<g id="Group_2">
<path id="Vector" d="M43.1818 15.9091H36.3636V6.81818H4.54549C2.03406 6.81818 0 8.85224 0 11.3637V36.3637H4.54549C4.54549 40.1251 7.60228 43.1819 11.3637 43.1819C15.1251 43.1819 18.1819 40.1251 18.1819 36.3637H31.8182C31.8182 40.1251 34.875 43.1819 38.6364 43.1819C42.3978 43.1819 45.4546 40.1251 45.4546 36.3637H50.0001V25.0001L43.1818 15.9091ZM11.3637 39.7727C9.47728 39.7727 7.95459 38.25 7.95459 36.3636C7.95459 34.4772 9.47728 32.9545 11.3637 32.9545C13.2501 32.9545 14.7728 34.4772 14.7728 36.3636C14.7728 38.25 13.25 39.7727 11.3637 39.7727ZM38.6364 39.7727C36.75 39.7727 35.2273 38.25 35.2273 36.3636C35.2273 34.4772 36.75 32.9545 38.6364 32.9545C40.5228 32.9545 42.0455 34.4772 42.0455 36.3636C42.0455 38.25 40.5227 39.7727 38.6364 39.7727ZM36.3636 25.0001V19.3183H42.0454L46.5113 25.0001H36.3636Z" fill="white"/>
</g>
</g>
</g>
<defs>
<clipPath id="clip0_4_319">
<rect width="50" height="50" fill="white"/>
</clipPath>
</defs>
</svg>
