<svg width="50" height="50" viewBox="0 0 50 50" fill="none" xmlns="http://www.w3.org/2000/svg">
<g id="wallet 1" clip-path="url(#clip0_4_196)">
<g id="Group">
<g id="Group_2">
<g id="Group_3">
<path id="Vector" d="M46.5906 40.9092H38.6362C33.6236 40.9092 29.5454 36.831 29.5454 31.8184C29.5454 26.8059 33.6236 22.7277 38.6362 22.7277H46.5906C47.2187 22.7277 47.727 22.2195 47.727 21.5913V18.1823C47.727 15.7994 45.8786 13.8615 43.5433 13.6735L37.0172 2.27457C36.4124 1.22033 35.4358 0.466825 34.2673 0.15394C33.1042 -0.156815 31.8881 0.00639266 30.8471 0.612242L8.47503 13.6369H4.5458C2.03899 13.6369 0.000383377 15.6754 0.000383377 18.1823V45.4546C0.000383377 47.9614 2.03888 50 4.5458 50H43.1816C45.6884 50 47.727 47.9615 47.727 45.4546V42.0456C47.727 41.4174 47.2187 40.9092 46.5906 40.9092ZM38.4265 9.3121L40.9025 13.6369H30.9981L38.4265 9.3121ZM12.992 13.6369L31.9912 2.57638C32.505 2.27564 33.1053 2.19574 33.6791 2.34893C34.2595 2.50426 34.7433 2.87936 35.0441 3.40424L35.0464 3.4084L17.4782 13.6369H12.992Z" fill="white"/>
<path id="Vector_2" d="M46.5905 25.0004H38.6361C34.8764 25.0004 31.818 28.0587 31.818 31.8184C31.818 35.5782 34.8764 38.6365 38.6361 38.6365H46.5905C48.4704 38.6365 49.9996 37.1074 49.9996 35.2275V28.4094C49.9996 26.5295 48.4704 25.0004 46.5905 25.0004ZM38.6361 34.0911C37.3833 34.0911 36.3634 33.0713 36.3634 31.8184C36.3634 30.5656 37.3833 29.5458 38.6361 29.5458C39.8889 29.5458 40.9087 30.5656 40.9087 31.8184C40.9088 33.0713 39.889 34.0911 38.6361 34.0911Z" fill="white"/>
</g>
</g>
</g>
</g>
<defs>
<clipPath id="clip0_4_196">
<rect width="50" height="50" fill="white"/>
</clipPath>
</defs>
</svg>
